<?xml version="1.0" encoding="UTF-8" standalone="no"?>
<!-- Created with Inkscape (http://www.inkscape.org/) -->

<svg
   xmlns:dc="http://purl.org/dc/elements/1.1/"
   xmlns:cc="http://creativecommons.org/ns#"
   xmlns:rdf="http://www.w3.org/1999/02/22-rdf-syntax-ns#"
   xmlns:svg="http://www.w3.org/2000/svg"
   xmlns="http://www.w3.org/2000/svg"
   xmlns:sodipodi="http://sodipodi.sourceforge.net/DTD/sodipodi-0.dtd"
   xmlns:inkscape="http://www.inkscape.org/namespaces/inkscape"
   width="210mm"
   height="297mm"
   viewBox="0 0 210 297"
   version="1.1"
   id="svg8"
   inkscape:version="0.92.1 r15371"
   sodipodi:docname="logo1.svg">
  <defs
     id="defs2" />
  <sodipodi:namedview
     id="base"
     pagecolor="#ffffff"
     bordercolor="#666666"
     borderopacity="1.0"
     inkscape:pageopacity="0.0"
     inkscape:pageshadow="2"
     inkscape:zoom="0.35"
     inkscape:cx="400"
     inkscape:cy="560"
     inkscape:document-units="mm"
     inkscape:current-layer="layer1"
     showgrid="false"
     inkscape:window-width="1024"
     inkscape:window-height="706"
     inkscape:window-x="-8"
     inkscape:window-y="-8"
     inkscape:window-maximized="1" />
  <metadata
     id="metadata5">
    <rdf:RDF>
      <cc:Work
         rdf:about="">
        <dc:format>image/svg+xml</dc:format>
        <dc:type
           rdf:resource="http://purl.org/dc/dcmitype/StillImage" />
        <dc:title />
      </cc:Work>
    </rdf:RDF>
  </metadata>
  <g
     inkscape:label="Capa 1"
     inkscape:groupmode="layer"
     id="layer1">
    <g
       id="g21"
       transform="translate(-63.5,-145.14286)">
      <path
         style="fill:#fcfdfd;stroke-width:0.46531853"
         d="m 64.822922,190.78868 v -44.45 h 64.444938 64.44494 v 44.45 44.44999 H 129.26786 64.822922 Z"
         id="path37"
         inkscape:connector-curvature="0" />
      <path
         style="fill:#d1ecf5;stroke-width:0.46531853"
         d="m 64.822922,190.78868 v -44.45 h 64.444938 64.44494 v 44.45 44.44999 H 129.26786 64.822922 Z m 79.421738,32.89123 c 13.89092,-2.41968 26.47903,-8.72451 32.88341,-16.46987 17.41478,-21.06118 -1.72519,-45.95918 -38.45561,-50.0245 -20.43724,-2.262 -43.485677,4.88048 -53.947786,16.71788 -2.680019,3.03231 -5.749778,8.82842 -6.492388,12.25848 -2.643588,12.21051 5.230299,24.28296 20.722586,31.77241 6.715558,3.24651 13.646638,5.12528 24.345868,6.59929 3.02576,0.41685 16.89551,-0.14849 20.94392,-0.85369 z M 94.419857,204.9731 c -0.39383,-0.14203 -1.629024,-0.8501 -2.744877,-1.57348 l -2.028822,-1.31524 v -2.91047 c 0,-3.23253 0.530544,-3.84952 3.310207,-3.84952 h 1.463492 v -4.6947 -4.6947 l -2.386849,-1.40978 -2.38685,-1.40978 v -2.95099 c 0,-4.02981 -0.0024,-4.02893 10.534742,-3.82101 8.24072,0.1626 8.53132,0.20076 9.73895,1.27871 l 1.24477,1.1111 0.27288,-0.99146 c 0.38154,-1.38627 2.16215,-1.60834 11.15263,-1.39095 l 7.60668,0.18394 1.445,1.31538 c 1.36837,1.24562 1.44501,1.26362 1.44501,0.33935 0,-0.53683 0.41551,-1.18734 0.92336,-1.44558 1.54498,-0.78563 25.03724,-0.61097 28.35789,0.21083 1.51201,0.3742 3.13888,0.68036 3.61524,0.68036 0.47637,0 1.84709,0.99644 3.04604,2.21432 2.43203,2.47041 3.46485,5.15589 2.96213,7.70198 -1.13125,5.72951 -6.03534,8.68012 -14.42682,8.68012 h -3.16262 l 1.03796,1.04977 c 0.83204,0.84152 1.03795,1.59991 1.03795,3.82296 0,4.22382 0.0599,4.1987 -10.00675,4.1987 h -8.50643 l -2.31963,-1.51792 -2.31963,-1.51791 -0.15372,-2.88661 c -0.17565,-3.29837 0.40521,-4.05613 3.10918,-4.05613 h 1.57955 l -0.0197,-4.64911 -0.0197,-4.6491 -1.99606,-1.21166 c -2.1245,-1.28961 -2.73815,-1.27805 -2.73815,0.0516 0,0.84184 -1.23071,1.36917 -3.22225,1.38065 l -1.07408,0.006 v 9.05547 c 0,10.68339 0.43638,9.99453 -6.33126,9.99453 -4.24319,0 -4.60826,-0.0779 -6.78285,-1.44643 -1.26406,-0.79554 -2.40003,-1.81607 -2.52437,-2.26786 -0.40514,-1.47201 -1.06947,-0.86518 -1.06947,0.97691 0,1.31374 -0.24881,1.92484 -0.92335,2.26785 -0.95765,0.48697 -15.441272,0.60782 -16.739333,0.13967 z m 14.011913,-9.54032 c 0.12349,-0.18985 -0.0523,-0.70487 -0.39062,-1.14449 -0.58096,-0.75491 -0.62877,-0.7498 -0.86049,0.0921 -0.32798,1.19168 0.6341,2.00093 1.25111,1.05236 z m 46.49473,-9.05112 c -0.72203,-0.10392 -1.90352,-0.10392 -2.62554,0 -0.72202,0.10393 -0.13128,0.18896 1.31277,0.18896 1.44404,0 2.03479,-0.085 1.31277,-0.18896 z"
         id="path35"
         inkscape:connector-curvature="0" />
      <path
         style="fill:#a6dcef;stroke-width:0.46531853"
         d="m 64.822922,190.78868 v -44.45 h 64.444938 64.44494 v 44.45 44.44999 H 129.26786 64.822922 Z m 80.186268,33.38054 c 13.41536,-2.37722 26.31498,-8.90914 32.59625,-16.50561 4.85671,-5.87363 6.75949,-11.15854 6.46424,-17.95423 -0.21818,-5.02176 -1.20525,-7.98232 -4.27001,-12.80718 -5.60221,-8.8196 -18.42837,-16.11117 -33.9726,-19.31318 -4.17051,-0.85909 -6.32632,-1.00187 -15.1271,-1.00187 -11.3948,0 -15.87885,0.63147 -24.19712,3.40757 -12.954045,4.32324 -21.996848,11.06244 -26.40899,19.68146 -2.2546,4.40431 -2.832404,6.66277 -2.84765,11.13059 -0.03797,11.12839 7.566474,21.00326 21.231292,27.5702 7.006718,3.36724 13.677268,5.21423 23.868498,6.60888 3.17014,0.43383 18.78088,-0.12868 22.66319,-0.81663 z m -52.541634,-20.68639 -2.190986,-1.36763 0.04282,-3.05523 0.04282,-3.05522 2.267507,-0.13825 2.267507,-0.13824 v -5.19122 c 0,-3.23108 -0.184114,-5.19122 -0.487604,-5.19122 -0.268183,0 -1.307868,-0.51576 -2.310411,-1.14614 -1.821436,-1.14528 -1.822773,-1.14843 -1.779902,-4.19553 l 0.0429,-3.0494 h 9.151681 c 9.024952,0 9.168702,0.0152 10.380912,1.09792 0.67608,0.60385 1.28378,1.01207 1.35046,0.90714 0.0667,-0.10493 0.3592,-0.59899 0.65007,-1.09792 0.49319,-0.84598 1.09574,-0.91549 8.93718,-1.03095 l 8.40833,-0.1238 1.91828,1.64665 c 1.94922,1.67321 2.14256,1.63521 2.50279,-0.4919 0.14861,-0.87754 0.57404,-0.91117 13.03628,-1.03056 8.15796,-0.0782 13.67049,0.0587 15.03082,0.3731 1.18149,0.27309 2.79261,0.60678 3.58027,0.74153 0.78766,0.13475 2.23589,0.97613 3.21829,1.86974 4.71464,4.2885 4.03382,10.81984 -1.45662,13.97391 -2.8575,1.64152 -4.55221,1.97465 -10.11564,1.98839 l -4.05765,0.01 1.55146,1.16178 c 1.45337,1.08832 1.55145,1.34033 1.55145,3.98639 0,1.59217 -0.24995,3.06211 -0.57285,3.36891 -0.40285,0.38277 -3.10717,0.54429 -9.11309,0.54429 h -8.54026 l -1.84166,-1.24732 c -1.60927,-1.08993 -1.88084,-1.54024 -2.15222,-3.56872 -0.49175,-3.67561 -0.30883,-4.00785 2.29418,-4.16685 l 2.26321,-0.13824 v -4.89866 -4.89866 l -2.14816,-1.29015 c -1.50325,-0.90283 -2.14817,-1.59539 -2.14817,-2.30686 0,-0.5592 -0.21482,-1.14286 -0.47737,-1.29704 -0.28682,-0.16842 -0.47737,0.41997 -0.47737,1.47404 0,2.26871 -0.79381,3.2045 -2.86422,3.37647 l -1.67079,0.13878 -0.23869,9.29821 -0.23868,9.29821 -5.01312,0.1276 c -4.77334,0.12149 -5.11013,0.0678 -7.04121,-1.12188 -1.11545,-0.68721 -2.02809,-1.56299 -2.02809,-1.94617 0,-0.38318 -0.4345,-0.95452 -0.96557,-1.26964 -1.13797,-0.67525 -1.31443,-0.39783 -1.52391,2.39581 l -0.13605,1.81428 -8.35397,0.11394 -8.353974,0.11393 z m 16.419734,-8.64688 c -1.24406,-2.01325 -2.05581,-2.57334 -2.05581,-1.41848 0,0.50907 -0.12384,1.2322 -0.27519,1.60695 -0.18613,0.46088 0.0842,0.74643 0.8354,0.88247 2.34586,0.4248 2.39717,0.38806 1.4956,-1.07094 z m 47.31293,-7.95116 c 1.69027,-0.61628 0.57848,-1.12059 -2.19058,-0.99365 -3.73094,0.17104 -4.55472,1.26897 -0.95211,1.26897 1.31318,0 2.72739,-0.12389 3.14269,-0.27532 z"
         id="path33"
         inkscape:connector-curvature="0" />
      <path
         style="fill:#90d4eb;stroke-width:0.46531853"
         d="m 64.822922,190.78868 v -44.45 h 64.444938 64.44494 v 44.45 44.44999 H 129.26786 64.822922 Z m 79.460798,34.24547 c 10.74817,-1.87142 21.09412,-6.17854 28.46614,-11.85073 7.46392,-5.7429 12.37028,-14.62522 12.37028,-22.39474 0,-7.89627 -5.12334,-16.88236 -13.00665,-22.81302 -13.84838,-10.41823 -36.4177,-14.95965 -55.73462,-11.21496 -13.72682,2.66102 -26.014973,8.77878 -32.610814,16.23557 -2.687514,3.03832 -6.231126,9.73118 -6.970682,13.16563 -1.97106,9.15345 2.689912,19.90611 11.609225,26.78198 9.152396,7.05555 19.215931,10.79048 34.894141,12.95043 3.04268,0.41919 16.89715,-0.14875 20.98298,-0.86016 z M 92.373898,203.18528 c -1.131348,-0.76708 -1.708516,-1.4699 -1.543217,-1.87919 0.145233,-0.3596 0.03088,-0.92078 -0.254118,-1.24706 -0.284997,-0.32628 -0.449816,-1.26992 -0.366264,-2.09698 0.142758,-1.4131 0.271949,-1.51203 2.143557,-1.64148 1.095403,-0.0758 2.230951,-0.41172 2.52344,-0.74657 0.335972,-0.38465 0.4815,-2.3204 0.395207,-5.25689 -0.120452,-4.09889 -0.249152,-4.70735 -1.089283,-5.14985 -2.653665,-1.39772 -3.627428,-2.23053 -3.365717,-2.87854 0.152481,-0.37755 0.04406,-0.95341 -0.24094,-1.27969 -0.284997,-0.32628 -0.449816,-1.26992 -0.366264,-2.09697 l 0.151914,-1.50374 h 9.070029 c 8.719748,0 9.129928,0.0406 10.621048,1.05113 l 1.55103,1.05113 0.46598,-1.16452 0.46598,-1.16452 h 8.75385 8.75385 l 1.30854,1.29772 c 1.17105,1.16139 1.29328,1.57836 1.16339,3.96875 l -0.14514,2.67102 -1.90948,0.22679 -1.90948,0.22679 -0.23869,9.29821 -0.23868,9.29821 -5.2021,0.12942 c -4.91939,0.12238 -5.30416,0.0652 -7.07987,-1.05128 -1.12451,-0.70707 -1.77806,-1.42755 -1.62923,-1.79608 0.20681,-0.51205 -1.5004,-2.04456 -2.27764,-2.04456 -0.12679,0 -0.29546,1.07157 -0.37482,2.38125 l -0.14429,2.38125 -8.59266,0.12081 -8.592658,0.12081 z m 17.270912,-7.52071 c -0.30902,-0.5613 -0.99275,-1.60465 -1.51941,-2.31856 -1.06568,-1.44458 -1.55047,-1.10328 -1.84377,1.29802 -0.17338,1.4194 -0.2516,1.37574 3.5502,1.98137 0.20616,0.0328 0.12199,-0.39954 -0.18702,-0.96083 z m 25.8754,7.42695 c -0.98948,-0.77969 -1.48646,-1.49174 -1.27168,-1.82195 0.19393,-0.29813 0.10463,-0.82595 -0.19844,-1.17292 -0.30308,-0.34697 -0.48268,-1.30754 -0.39913,-2.1346 0.1412,-1.39769 0.28614,-1.51411 2.05534,-1.65092 2.94205,-0.22751 3.10896,-0.53551 3.10896,-5.73698 v -4.63916 l -2.43419,-1.43774 c -1.76457,-1.04224 -2.35325,-1.63818 -2.13993,-2.16636 0.16184,-0.40074 0.0611,-0.99558 -0.22392,-1.32186 -0.28499,-0.32628 -0.44981,-1.26992 -0.36626,-2.09697 l 0.15192,-1.50374 12.88898,-0.13717 c 16.44903,-0.17506 18.9023,0.16113 21.93988,3.00659 2.36872,2.21892 2.89902,3.75416 2.53615,7.3423 -0.27645,2.73369 -2.00925,5.04958 -4.81217,6.43149 -1.64584,0.81144 -3.11795,1.03289 -8.29084,1.24722 -3.45933,0.14333 -6.44885,0.41184 -6.6434,0.59669 -0.19455,0.18485 0.0827,0.33609 0.6162,0.33609 0.53346,0 1.53593,0.42303 2.22773,0.94007 1.14256,0.85393 1.2578,1.22794 1.2578,4.08214 v 3.14208 l -9.18937,-0.0122 -9.18937,-0.0122 z m 21.16223,-16.35802 c 1.17294,-0.92493 0.41442,-1.38768 -2.27461,-1.38768 -2.77301,0 -5.2285,1.14315 -4.06497,1.89244 0.88794,0.57181 5.43327,0.20991 6.33958,-0.50476 z"
         id="path31"
         inkscape:connector-curvature="0" />
      <path
         style="fill:#63c5ec;stroke-width:0.46531853"
         d="m 64.822922,190.78868 v -44.45 h 64.444938 64.44494 v 44.45 44.44999 H 129.26786 64.822922 Z m 75.996708,35.60851 c 23.39715,-2.93696 41.18694,-15.0059 44.60859,-30.26334 1.54752,-6.90051 0.0616,-13.68592 -4.39872,-20.08624 -3.21768,-4.61723 -4.51828,-6.00836 -8.21697,-8.78891 -19.04482,-14.31722 -51.54236,-16.88915 -74.331492,-5.88276 -13.123136,6.33804 -21.047511,15.30071 -22.723047,25.70036 -0.663645,4.11909 -0.164284,8.92011 1.329664,12.7838 1.194158,3.08837 5.60264,9.3265 8.399749,11.88588 7.778451,7.11737 20.592586,12.65617 33.278316,14.38426 1.96915,0.26825 4.11732,0.56262 4.7737,0.65417 3.09391,0.4315 12.42331,0.22245 17.28021,-0.38722 z M 92.859877,203.24554 c -0.979885,-0.63266 -1.781609,-1.34703 -1.781609,-1.5875 0,-0.26343 3.22568,-0.43722 8.115289,-0.43722 4.961103,0 8.115293,-0.17213 8.115293,-0.44286 0,-0.26619 -3.28508,-0.49237 -8.234636,-0.56697 l -8.234631,-0.1241 v -1.81428 -1.81429 l 2.148165,-0.22679 2.148164,-0.22678 0.134571,-5.33815 c 0.120421,-4.77685 0.04513,-5.36884 -0.716055,-5.63006 -1.312063,-0.45026 -3.47616,-1.97118 -3.47616,-2.44303 0,-0.23248 0.859266,-0.42269 1.90948,-0.42269 2.550443,0 2.452316,-0.81767 -0.119343,-0.99446 -2.024247,-0.13915 -2.028822,-0.14356 -2.028822,-1.95375 v -1.81429 h 8.912981 c 8.586306,0 8.954856,0.0374 10.055536,1.02054 0.6284,0.56129 1.38229,1.02053 1.6753,1.02053 0.29301,0 0.60139,-0.45924 0.68529,-1.02053 0.15116,-1.01129 0.23,-1.02131 8.70383,-1.1052 l 8.55129,-0.0847 1.59282,1.51342 c 1.27698,1.21332 1.59282,1.8748 1.59282,3.33596 0,2.80934 -0.33537,3.25745 -2.43792,3.25745 h -1.85841 v 8.98071 c 0,6.38024 -0.16587,9.13832 -0.57284,9.525 -0.36883,0.35044 -2.26545,0.54429 -5.32535,0.54429 -4.35914,0 -4.88466,-0.0958 -6.34902,-1.15701 -0.87808,-0.63636 -1.59652,-1.35073 -1.59652,-1.5875 0,-0.24291 2.08013,-0.43049 4.7737,-0.43049 2.86422,0 4.7737,-0.18143 4.7737,-0.45357 0,-0.27433 -2.03319,-0.45357 -5.14485,-0.45357 -3.88388,0 -5.40488,-0.17306 -6.20581,-0.70608 -1.05273,-0.7006 -1.06096,-0.689 -1.06096,1.49679 0,1.21157 -0.25778,2.44779 -0.57284,2.74714 -0.39944,0.37953 -2.96689,0.54429 -8.48184,0.54429 -7.679664,0 -7.960666,-0.0333 -9.690613,-1.15028 z m 16.129213,-9.01044 c -0.94027,-1.39661 -1.90483,-2.53928 -2.14347,-2.53928 -0.23863,0 -0.50055,0.7654 -0.58204,1.70089 -0.13526,1.55284 -0.28321,1.71327 -1.69961,1.84303 -2.26056,0.20709 -1.89974,0.9853 0.47737,1.02959 3.18698,0.0594 4.168,0.22581 4.78468,0.81174 1.25993,1.19712 0.77507,-0.45164 -0.83693,-2.84597 z m 8.23512,-3.53147 c -0.29504,-0.84102 -1.32271,-0.98051 -1.32271,-0.17954 0,0.39499 0.34013,0.71816 0.75584,0.71816 0.41571,0 0.6708,-0.24238 0.56687,-0.53862 z m -13.73432,-4.19711 c 0,-0.11001 -0.21482,-0.32617 -0.47737,-0.48034 -0.26256,-0.15418 -0.47737,-0.0642 -0.47737,0.20001 0,0.26419 0.21481,0.48034 0.47737,0.48034 0.26255,0 0.47737,-0.09 0.47737,-0.20001 z m 13.12767,-4.78927 c -0.16227,-0.24947 -1.14162,-0.45357 -2.17634,-0.45357 -1.03472,0 -1.88131,0.2041 -1.88131,0.45357 0,0.24946 0.97936,0.45357 2.17634,0.45357 1.32934,0 2.06152,-0.17652 1.88131,-0.45357 z m 11.69556,0 c 0,-0.24947 -0.73918,-0.45357 -1.64262,-0.45357 -0.90344,0 -1.77538,0.2041 -1.93765,0.45357 -0.17818,0.27392 0.47241,0.45357 1.64262,0.45357 1.06571,0 1.93765,-0.20411 1.93765,-0.45357 z m 7.63201,21.37171 c -0.91569,-0.72935 -1.52504,-1.46185 -1.35413,-1.62779 0.17092,-0.16594 3.97662,-0.29618 8.45711,-0.28942 4.70147,0.007 8.26605,-0.17174 8.42942,-0.42289 0.28207,-0.43365 -2.60532,-0.58137 -12.42358,-0.6356 l -4.7737,-0.0264 v -1.81428 -1.81429 l 2.14816,-0.22678 2.14817,-0.22679 0.13454,-5.3352 0.13454,-5.3352 -1.32709,-0.4794 c -1.46625,-0.52969 -2.99964,-1.70587 -2.99964,-2.30087 0,-0.2108 0.85927,-0.38327 1.90948,-0.38327 2.55045,0 2.45232,-0.81767 -0.11934,-0.99446 -2.02425,-0.13915 -2.02882,-0.14356 -2.02882,-1.95375 v -1.81429 l 13.12767,-0.12451 c 10.85051,-0.10291 13.52439,-0.002 15.41473,0.58226 1.25788,0.38871 2.49156,0.58667 2.74151,0.43989 0.85061,-0.4995 5.14666,4.09071 5.49908,5.87561 0.71923,3.64268 -0.77514,7.27178 -3.80142,9.23184 -2.25738,1.46205 -5.12852,1.88779 -12.81269,1.89989 -7.23645,0.0114 -9.32046,0.56265 -4.09059,1.08203 1.62285,0.16117 3.45835,0.60911 4.07889,0.99544 1.02794,0.63995 1.11576,0.97254 0.98768,3.74034 l -0.14059,3.03792 -8.83726,0.12301 -8.83725,0.123 z m 24.82915,-10.93957 c 0,-0.28078 -2.54597,-0.45357 -6.68318,-0.45357 -4.13721,0 -6.68318,0.17279 -6.68318,0.45357 0,0.28078 2.54597,0.45357 6.68318,0.45357 4.13721,0 6.68318,-0.17279 6.68318,-0.45357 z m -3.9172,-5.2471 c 1.61543,-1.07509 0.84316,-1.55647 -2.49702,-1.55647 -2.09877,0 -3.19705,0.20696 -3.61055,0.68036 -0.32685,0.37419 -1.21242,0.68035 -1.96793,0.68035 -0.75551,0 -1.37366,0.20411 -1.37366,0.45358 0,0.78723 8.21569,0.56307 9.44916,-0.25782 z m -1.81124,-5.18504 c 0,-0.26458 -1.59123,-0.45357 -3.81896,-0.45357 -2.22773,0 -3.81896,0.18899 -3.81896,0.45357 0,0.26458 1.59123,0.45357 3.81896,0.45357 2.22773,0 3.81896,-0.18899 3.81896,-0.45357 z"
         id="path29"
         inkscape:connector-curvature="0" />
      <path
         style="fill:#4cbae9;stroke-width:0.46531853"
         d="m 64.822922,190.78868 v -44.45 h 64.444938 64.44494 v 44.45 44.44999 H 129.26786 64.822922 Z m 75.519338,36.06208 c 16.38389,-2.05661 31.39828,-8.99752 38.73482,-17.90649 10.02183,-12.16979 9.68055,-25.34188 -0.97025,-37.44843 -6.49397,-7.38156 -20.22232,-13.89354 -34.39291,-16.31412 -21.5991,-3.6895 -46.390714,2.67719 -59.26835,15.22059 -2.805578,2.73276 -6.512853,8.30198 -7.833962,11.76851 -3.013197,7.90649 -1.758856,16.03161 3.716431,24.07358 10.031381,14.73386 35.936851,23.62871 60.014221,20.60636 z m -47.68592,-24.02811 -1.339387,-1.11959 7.160549,-0.0205 c 7.732248,-0.0222 9.308718,-0.22456 9.308718,-1.19499 0,-0.51099 -1.59497,-0.62746 -8.592663,-0.62746 h -8.592659 v -1.58749 c 0,-1.50467 0.08514,-1.5875 1.631752,-1.5875 3.164666,0 3.141947,0.0463 3.141947,-6.39853 0,-5.75784 -0.01654,-5.84812 -1.074082,-5.86233 -1.057331,-0.0142 -2.744877,-0.94235 -2.744877,-1.50968 0,-0.1596 0.859266,-0.29018 1.90948,-0.29018 1.313888,0 1.909479,-0.19707 1.909479,-0.63183 0,-0.79142 -1.039027,-1.18245 -3.141947,-1.18245 -1.553381,0 -1.631752,-0.078 -1.631752,-1.62284 v -1.62284 l 8.950686,0.14873 c 8.548846,0.14205 9.018296,0.19695 10.456756,1.22269 1.61535,1.15187 2.55157,0.99763 2.55157,-0.42037 0,-0.8396 0.40741,-0.88037 8.7967,-0.88037 h 8.7967 l 0.98938,1.19509 c 0.72171,0.87176 0.98939,1.85349 0.98939,3.62857 0,2.30996 -0.0622,2.43348 -1.22481,2.43348 -0.67364,0 -1.64032,0.21129 -2.14816,0.46953 -0.86556,0.44014 -0.92336,1.03633 -0.92336,9.525 v 9.05547 h -5.05807 c -3.92159,0 -5.36958,-0.17484 -6.4445,-0.77815 -0.76253,-0.42798 -1.38642,-0.91855 -1.38642,-1.09015 0,-0.17159 2.02323,-0.38272 4.49607,-0.46917 2.47283,-0.0865 4.64251,-0.29668 4.8215,-0.46718 0.95519,-0.90988 -0.69746,-1.2775 -5.74318,-1.2775 -6.18753,0 -5.25432,0.54474 -9.13019,-5.32946 -1.19334,-1.80861 -2.35186,-3.28839 -2.57447,-3.28839 -0.22261,0 -0.47142,0.7654 -0.55291,1.70089 -0.14011,1.60853 -0.24537,1.70854 -1.9383,1.84167 -1.09895,0.0864 -1.79013,0.37415 -1.79013,0.74522 0,0.83377 1.08323,1.15246 3.97734,1.17017 3.65012,0.0223 4.61531,0.9592 4.61531,4.47993 v 2.76212 h -8.56603 c -8.427879,0 -8.587646,-0.018 -9.90543,-1.1196 z m 24.67727,-12.0072 c 0,-1.09249 -0.86552,-1.65369 -1.54894,-1.00433 -0.36311,0.34501 -0.33416,0.68802 0.10004,1.18512 0.83431,0.95517 1.4489,0.87848 1.4489,-0.18079 z m -13.63847,-4.05752 c 0.14388,-0.2212 -0.0391,-0.63933 -0.4067,-0.92917 -0.74409,-0.58675 -1.50604,0.0875 -0.99198,0.87777 0.36529,0.56158 1.05045,0.58676 1.39868,0.0514 z m 13.38499,-4.56435 c 0.6807,-1.0465 -3.08833,-1.81607 -4.52022,-0.92296 -0.63649,0.397 -0.63649,0.49625 0,0.89325 0.91809,0.57265 4.15323,0.5939 4.52022,0.0297 z m 10.95526,0.1555 c 1.34559,-0.49061 0.86303,-1.53897 -0.70839,-1.53897 -1.73697,0 -3.45178,0.77612 -3.05672,1.38347 0.31396,0.48267 2.60794,0.57741 3.76511,0.1555 z m 7.96737,20.66545 c -0.62794,-0.50009 -1.00244,-1.04158 -0.83222,-1.20332 0.17022,-0.16173 3.69142,-0.28123 7.82489,-0.26555 7.05771,0.0268 9.83095,-0.36084 8.87941,-1.24105 -0.71682,-0.66308 -8.46924,-1.00447 -14.13366,-0.62239 l -3.69962,0.24955 v -1.62333 c 0,-1.54546 0.0783,-1.62333 1.63175,-1.62333 3.14941,0 3.14321,0.012 3.12963,-6.05835 l -0.0123,-5.50773 -1.89717,-0.8311 c -2.41916,-1.05978 -2.41469,-1.66354 0.0123,-1.66354 1.31389,0 1.90948,-0.19707 1.90948,-0.63183 0,-0.79142 -1.03903,-1.18245 -3.14195,-1.18245 -1.55025,0 -1.63175,-0.0802 -1.63175,-1.60632 v -1.60632 l 14.44044,0.18977 c 7.94224,0.10437 15.22154,0.33657 16.17622,0.51598 1.14507,0.2152 2.44469,1.01255 3.81896,2.34301 l 2.08318,2.01679 v 3.53117 c 0,3.13543 -0.1441,3.71068 -1.28582,5.13293 -2.30804,2.87513 -3.86622,3.28858 -13.35528,3.5437 -4.63941,0.12473 -8.60729,0.39096 -8.81752,0.59162 -0.67905,0.64816 0.95753,1.2086 3.55012,1.21572 2.05595,0.006 2.75129,0.2192 3.72446,1.14386 1.02414,0.97308 1.17579,1.47962 1.05238,3.51518 l -0.14418,2.37826 -9.07003,0.10416 c -8.46784,0.0973 -9.14583,0.0438 -10.21173,-0.80509 z m 25.58241,-10.63979 c 1.32897,-0.37498 2.68883,-0.9938 3.02194,-1.37516 0.53426,-0.61166 0.44255,-0.63297 -0.7782,-0.18089 -0.83357,0.3087 -4.23113,0.49323 -8.54439,0.46407 -7.11774,-0.0481 -9.43879,0.33887 -7.8766,1.31326 1.15118,0.71802 11.41613,0.55781 14.17725,-0.22128 z m -5.58459,-4.90006 c 1.14812,-0.37201 1.71851,-0.86061 1.82334,-1.5619 0.14451,-0.96681 -0.008,-1.02053 -2.89233,-1.02053 -1.93822,0 -3.38164,0.24203 -3.9715,0.66593 -0.50965,0.36626 -1.35627,0.67555 -1.88138,0.6873 -0.5251,0.0118 -1.27696,0.22236 -1.67079,0.468 -0.63649,0.397 -0.63649,0.49625 0,0.89325 0.98442,0.61402 6.55428,0.52842 8.59266,-0.13205 z m 0.21989,-5.74289 c -0.87426,-0.83067 -7.71603,-1.20799 -8.81255,-0.48601 -1.38276,0.91045 0.55529,1.39564 5.12709,1.28355 3.9466,-0.0968 4.33463,-0.18073 3.68546,-0.79754 z"
         id="path27"
         inkscape:connector-curvature="0" />
      <path
         style="fill:#2fb1e9;stroke-width:0.46531853"
         d="m 64.822922,190.78868 v -44.45 h 64.444938 64.44494 v 44.45 44.44999 H 129.26786 64.822922 Z M 141.297,226.85076 c 16.51848,-2.0735 29.56527,-8.24742 38.03435,-17.99836 5.37269,-6.18589 7.51931,-12.15009 7.0728,-19.65122 -0.50578,-8.49704 -4.9007,-15.82935 -13.4429,-22.42758 -10.95153,-8.45926 -24.59583,-12.49256 -42.26128,-12.49256 -17.57653,0 -30.930125,3.92942 -42.031618,12.3682 -10.324272,7.84798 -15.010601,17.57659 -13.439654,27.90014 0.708593,4.65654 1.595658,6.92017 4.302974,10.98037 7.106072,10.65707 22.057498,18.77924 38.756678,21.05406 1.96915,0.26825 4.11732,0.56262 4.7737,0.65417 3.1359,0.43736 13.40279,0.21935 18.23495,-0.38722 z M 93.345775,203.15067 c -0.722022,-0.42858 -1.312767,-0.93102 -1.312767,-1.11653 0,-0.1855 3.490767,-0.39336 7.757261,-0.46191 7.342261,-0.11796 7.764601,-0.17316 7.894491,-1.03177 0.13282,-0.87803 -0.13528,-0.90714 -8.353978,-0.90714 h -8.491199 v -1.36071 c 0,-1.25979 0.14118,-1.37164 1.903427,-1.50791 2.977913,-0.23028 3.108957,-0.49251 3.108957,-6.22125 0,-5.7404 -0.177119,-6.54802 -1.370991,-6.25138 -0.45758,0.11369 -1.356676,-0.22904 -1.997993,-0.76162 l -1.16603,-0.96834 2.056559,0.2183 c 1.892508,0.20089 2.044826,0.14006 1.909479,-0.76261 -0.119624,-0.7978 -0.548076,-1.02324 -2.295243,-1.20769 -2.015562,-0.21279 -2.148165,-0.31078 -2.148165,-1.5875 v -1.36072 l 8.115289,0.0168 c 8.476278,0.0176 9.867848,0.18277 11.201818,1.32981 1.17047,1.00644 2.31255,0.85684 2.48937,-0.3261 0.15162,-1.01437 0.20356,-1.02054 8.58811,-1.02054 8.31043,0 8.45414,0.0166 9.6881,1.11867 1.08105,0.9655 1.23327,1.43128 1.11184,3.40179 l -0.14071,2.28311 -1.90948,0.22679 -1.90948,0.22678 -0.23869,9.29822 -0.23868,9.29821 -4.9149,0.12949 c -4.47565,0.11792 -5.05161,0.0368 -6.4445,-0.90714 l -1.52959,-1.03663 4.7687,-0.22679 c 4.04969,-0.19259 4.79272,-0.34646 4.92804,-1.02054 0.14451,-0.71982 -0.36766,-0.79375 -5.4995,-0.79375 h -5.65884 l -2.61079,-3.89904 c -3.91595,-5.8482 -4.75895,-6.35797 -4.75895,-2.87776 v 1.78752 h -1.94449 c -1.59481,0 -1.91561,0.14274 -1.78392,0.79375 0.12553,0.62053 0.8699,0.86832 3.41101,1.13547 5.04198,0.53006 5.81717,1.25746 5.48234,5.14437 l -0.15256,1.77105 -8.11529,0.10723 c -6.973095,0.0921 -8.300054,-0.002 -9.428055,-0.67202 z m 24.142795,-11.63789 c 0.48206,-1.19358 -0.1729,-2.449 -1.15087,-2.20601 -1.02715,0.25522 -1.20789,1.4744 -0.34072,2.29834 0.75124,0.71379 1.17667,0.68745 1.49159,-0.0923 z m -13.60745,-4.915 c -0.19282,-1.28411 -1.82334,-1.6898 -1.82334,-0.45367 0,1.02731 0.39308,1.46957 1.30618,1.46957 0.42076,0 0.61299,-0.37764 0.51716,-1.0159 z m 13.26418,-5.14616 c -0.39329,-0.9738 -5.30144,-0.72787 -5.30144,0.26563 0,0.4948 0.71605,0.74221 2.62553,0.90714 2.69335,0.23264 3.16078,0.0278 2.67591,-1.17277 z m 11.55575,-0.0506 c 0.13642,-0.91092 -0.007,-0.97586 -1.67079,-0.75509 -2.64813,0.35145 -3.01347,0.51012 -3.01347,1.30876 0,0.57531 0.45429,0.69175 2.26751,0.5812 1.9176,-0.11691 2.29054,-0.29204 2.41675,-1.13487 z m 7.48868,21.4214 -1.43211,-1.11536 3.81896,-0.0383 c 12.96337,-0.12994 13.35756,-0.16288 13.5033,-1.12826 0.12913,-0.8554 -0.0901,-0.89824 -3.84246,-0.75095 -3.20049,0.12563 -4.10305,0.0146 -4.61107,-0.56696 -0.7971,-0.91256 -1.65724,-0.92092 -2.44092,-0.0237 -0.46209,0.52904 -1.37776,0.66718 -3.75807,0.56697 l -3.14711,-0.13248 v -1.36071 c 0,-1.25979 0.14118,-1.37164 1.90342,-1.50791 2.96183,-0.22903 3.10896,-0.51272 3.10896,-5.99446 0,-5.45938 -0.19702,-6.33156 -1.4303,-6.33156 -0.46793,0 -1.35791,-0.42223 -1.97775,-0.93829 l -1.12696,-0.93828 2.05655,0.2183 c 1.89251,0.20089 2.04483,0.14006 1.90948,-0.76261 -0.11962,-0.7978 -0.54807,-1.02324 -2.29524,-1.20769 -2.01556,-0.21279 -2.14816,-0.31078 -2.14816,-1.5875 v -1.36072 l 12.88898,-0.135 c 14.18403,-0.14857 17.48458,0.25396 20.69691,2.52414 3.68045,2.60103 3.98702,8.20773 0.63503,11.61404 -2.34906,2.38714 -3.86388,2.73006 -13.21665,2.99194 -7.20713,0.2018 -8.59266,0.3503 -8.59266,0.92095 0,0.50489 0.83995,0.76849 3.25666,1.02208 4.83857,0.50771 5.09732,0.72141 5.09732,4.20995 v 2.93226 l -8.712,-0.002 c -8.54598,-0.002 -8.7393,-0.0235 -10.14411,-1.11761 z m 26.37255,-10.4635 c 2.18842,-0.8688 3.35899,-1.8592 4.26695,-3.6102 l 0.70613,-1.36179 -1.11303,1.23855 c -1.9732,2.19572 -3.91209,2.61681 -12.04904,2.61681 -7.06986,0 -8.41188,0.23773 -7.68143,1.36071 0.50589,0.77773 13.81204,0.57309 15.87042,-0.24408 z m -5.17857,-5.38247 c 1.91409,-1.64774 1.32144,-2.08416 -2.83022,-2.08416 -2.96758,0 -3.89604,0.15374 -4.10872,0.68036 -0.16822,0.41651 -0.89198,0.68035 -1.86633,0.68035 -1.6631,0 -2.40703,0.56059 -1.85999,1.40159 0.20826,0.32017 1.96771,0.44008 4.99158,0.34018 3.77179,-0.1246 4.86301,-0.32045 5.67368,-1.01832 z m -0.59446,-5.08739 c -1.26045,-1.03078 -1.6778,-1.10232 -5.72844,-0.98195 -3.50453,0.10414 -4.36895,0.26443 -4.36895,0.81018 0,0.54809 0.99035,0.72445 5.09418,0.90714 2.80179,0.12473 5.25428,0.37987 5.44997,0.56697 0.19569,0.18709 0.48111,0.22076 0.63427,0.0748 0.15315,-0.14595 -0.33331,-0.76567 -1.08103,-1.37714 z"
         id="path25"
         inkscape:connector-curvature="0" />
      <path
         style="fill:#01a1e7;stroke-width:0.46531853"
         d="m 64.822922,190.78868 v -44.45 h 64.444938 64.44494 v 44.45 44.44999 H 129.26786 64.822922 Z M 141.297,227.30434 c 20.15773,-2.53033 35.95678,-11.59824 42.8497,-24.5937 3.11405,-5.87103 3.69648,-14.25862 1.42626,-20.53982 -1.92229,-5.31857 -6.66465,-11.5415 -11.74115,-15.40675 -15.05111,-11.45991 -37.67348,-15.82161 -59.81789,-11.53316 -21.052846,4.07704 -37.001679,16.93938 -39.239562,31.64572 -0.664801,4.36877 -0.124792,9.73811 1.353283,13.45578 1.279235,3.21755 5.727934,9.44485 8.668747,12.13454 7.985891,7.30396 20.675652,12.82455 33.491962,14.57043 1.96915,0.26825 4.11732,0.56262 4.7737,0.65417 3.1359,0.43736 13.40279,0.21935 18.23495,-0.38721 z M 93.254535,202.7939 c -0.828646,-0.59552 -0.197632,-0.66659 5.967124,-0.67213 8.964391,-0.008 9.041931,-0.0299 9.041931,-2.54135 0,-1.32894 0.20577,-1.98817 0.62058,-1.98817 1.20284,0 1.76626,1.11407 1.76626,3.4925 v 2.40393 l -8.23463,-0.0144 c -6.483532,-0.0113 -8.431677,-0.15604 -9.161265,-0.68035 z m 23.391125,0 c -0.84168,-0.60488 -0.60097,-0.66651 2.62554,-0.67213 6.23215,-0.0109 5.70033,0.90329 5.70033,-9.79849 v -9.24532 l 1.07408,-0.006 c 2.6811,-0.0155 3.22225,-0.44226 3.22225,-2.54135 0,-2.16313 0.37851,-2.43779 1.59681,-1.1587 0.4978,0.52264 0.79004,1.6132 0.79004,2.94821 0,1.97209 -0.0848,2.11875 -1.22481,2.11875 -0.67364,0 -1.64031,0.21129 -2.14816,0.46953 -0.86556,0.44014 -0.92336,1.03633 -0.92336,9.52499 v 9.05548 l -4.89304,-0.0144 c -3.54414,-0.0104 -5.1485,-0.19801 -5.81968,-0.68035 z m 19.99333,0.0288 c -0.85084,-0.61146 -0.69236,-0.67334 1.93759,-0.75655 1.57532,-0.0498 4.92829,-0.0337 7.45104,0.0359 5.70865,0.15743 6.63137,-0.22449 6.63137,-2.74475 0,-1.49959 0.15142,-1.80418 0.8354,-1.68038 0.67014,0.12129 0.86351,0.71107 0.97752,2.98147 l 0.14211,2.83027 h -8.52419 c -6.756,0 -8.71642,-0.13814 -9.45084,-0.66594 z m -45.560722,-4.49115 c 0,-0.93927 0.274102,-1.10429 2.171745,-1.30752 1.19446,-0.12792 2.322247,-0.37772 2.506192,-0.5551 0.401035,-0.38673 0.350735,-15.11422 -0.05293,-15.49776 -0.154835,-0.14712 -1.258803,-0.37215 -2.453263,-0.50007 -1.904508,-0.20396 -2.171745,-0.3662 -2.171745,-1.31849 v -1.08591 l 7.957368,0.12436 7.957365,0.12436 4.59624,7.02829 c 2.54578,3.89285 4.95882,7.09464 5.40899,7.17701 0.73053,0.13367 0.81275,-0.4266 0.81275,-5.53822 0,-6.34988 -0.14513,-6.62601 -3.48269,-6.62601 -1.48763,0 -1.61529,-0.10282 -1.40784,-1.13392 l 0.22813,-1.13393 h 7.34359 7.34358 v 1.13393 c 0,0.87171 -0.24838,1.13536 -1.07408,1.14012 -0.59075,0.003 -1.55742,0.12926 -2.14816,0.27968 -1.06932,0.27228 -1.07409,0.31449 -1.07409,9.51881 v 9.24531 l -5.13172,-0.004 -5.13173,-0.004 -1.98942,-3.05773 c -1.09418,-1.68174 -2.7053,-3.97164 -3.58027,-5.08865 -0.87497,-1.11701 -2.1445,-2.95397 -2.82117,-4.08214 -0.78936,-1.31563 -1.55929,-2.05082 -2.14817,-2.05082 -0.84698,0 -0.92831,0.41987 -1.05333,5.43774 -0.15354,6.16289 0.0584,6.58191 3.32963,6.58191 1.6212,0 1.81824,0.12287 1.81824,1.13393 v 1.13392 h -7.876609 -7.876604 z m 43.440662,0 c 0,-0.93927 0.2741,-1.10429 2.17175,-1.30752 1.19446,-0.12792 2.32225,-0.37795 2.50619,-0.55562 0.39066,-0.37733 0.32549,-15.13769 -0.0685,-15.51202 -0.14628,-0.13899 -1.24324,-0.35737 -2.4377,-0.48529 -1.91301,-0.20487 -2.17175,-0.36361 -2.17175,-1.33237 v -1.0998 l 14.20176,0.13825 14.20175,0.13824 2.73234,1.21678 c 3.43533,1.52983 4.66262,3.274 4.66511,6.62985 0.002,2.77768 -0.79652,4.4928 -2.86011,6.14263 -2.19201,1.7525 -4.28371,2.10722 -12.44204,2.11 -5.86894,0.002 -7.62177,0.14528 -8.35398,0.68289 -0.91727,0.67348 -0.91727,0.68723 0,1.36071 0.50965,0.3742 1.63744,0.68036 2.50619,0.68036 1.36661,0 1.57956,0.15286 1.57956,1.13393 0,1.09448 -0.10911,1.13392 -3.137,1.13392 -2.15196,0 -3.36185,-0.21363 -3.85306,-0.68035 -0.39383,-0.3742 -1.00759,-0.68036 -1.36392,-0.68036 -0.35632,0 -0.97008,0.30616 -1.36391,0.68036 -0.47924,0.45535 -1.67458,0.68035 -3.61437,0.68035 -2.73088,0 -2.89832,-0.0621 -2.89832,-1.07494 z m 29.37306,-6.20884 c 2.48662,-1.21663 4.49715,-3.78147 4.51235,-5.75639 0.0127,-1.64384 -1.21613,-1.17364 -2.02106,0.77335 -1.3174,3.18657 -2.74689,3.6453 -11.36554,3.64727 -5.86995,0.001 -7.62164,0.14436 -8.35398,0.68205 -0.9159,0.67248 -0.91557,0.68861 0.0281,1.39223 0.79026,0.58923 2.14976,0.6869 7.89141,0.56696 6.34144,-0.13247 7.14022,-0.24449 9.30871,-1.30547 z m -7.41916,-4.39638 c 2.83089,-1.34782 3.18199,-4.74561 0.65307,-6.32002 -1.79559,-1.11786 -9.11022,-1.4035 -10.43404,-0.40745 -0.94368,0.71003 -0.94401,0.72623 -0.0281,1.39871 0.6694,0.49149 2.14398,0.68035 5.31195,0.68035 3.31571,0 4.53028,0.16595 4.9796,0.68036 0.51777,0.59277 0.19903,0.68036 -2.47584,0.68036 -1.96043,0 -3.40505,0.2407 -3.99675,0.66593 -0.50965,0.36626 -1.36892,0.67242 -1.90948,0.68036 -0.54057,0.008 -1.39983,0.32058 -1.90948,0.69478 -0.91727,0.67348 -0.91727,0.68723 0,1.36071 1.35351,0.99378 7.63561,0.92071 9.80907,-0.11409 z m 11.462,-4.64841 c 0,-0.24946 -0.2275,-0.45357 -0.50555,-0.45357 -0.27805,0 -0.37278,0.20411 -0.21051,0.45357 0.16227,0.24947 0.38976,0.45357 0.50555,0.45357 0.11578,0 0.21051,-0.2041 0.21051,-0.45357 z m -64.44494,8.16429 c 0,-1.74625 0.1685,-3.175 0.37444,-3.175 0.20595,0 0.74757,0.60016 1.20362,1.33369 1.10291,1.77401 0.6606,5.01631 -0.68434,5.01631 -0.78827,0 -0.89372,-0.37463 -0.89372,-3.175 z m 10.27812,-5.22488 c -0.92701,-1.3769 -1.68547,-2.60154 -1.68547,-2.72143 0,-0.11989 0.96668,-0.21798 2.14817,-0.21798 h 2.14816 v 2.72143 c 0,1.49679 -0.20821,2.72143 -0.4627,2.72143 -0.25448,0 -1.22116,-1.12655 -2.14816,-2.50345 z m -20.780262,-2.48584 c -0.579031,-0.35554 -0.510518,-0.44101 0.358027,-0.44662 0.590745,-0.004 1.074082,0.19716 1.074082,0.44662 0,0.56829 -0.506604,0.56829 -1.432109,0 z m 43.201982,0 c -0.16227,-0.24946 0.14727,-0.45357 0.68788,-0.45357 0.5406,0 0.98291,0.20411 0.98291,0.45357 0,0.24947 -0.30955,0.45358 -0.68788,0.45358 -0.37833,0 -0.82065,-0.20411 -0.98291,-0.45358 z m -25.69842,-2.57023 c -0.57984,-0.55094 -0.32983,-1.03409 0.39781,-0.76879 0.39383,0.14359 0.71605,0.44335 0.71605,0.66612 0,0.47553 -0.65764,0.53614 -1.11386,0.10267 z"
         id="path23"
         inkscape:connector-curvature="0" />
    </g>
    <g
       transform="matrix(1.6158358,0,0,2.1904763,-102.69481,-320.22052)"
       id="g34">
      <path
         inkscape:connector-curvature="0"
         id="path17"
         d="m 64.822922,190.78868 v -44.45 h 64.444938 64.44494 v 44.45 44.44999 H 129.26786 64.822922 Z"
         style="fill:#fcfdfd;stroke-width:0.46531853" />
      <path
         inkscape:connector-curvature="0"
         id="path19"
         d="m 64.822922,190.78868 v -44.45 h 64.444938 64.44494 v 44.45 44.44999 H 129.26786 64.822922 Z m 79.421738,32.89123 c 13.89092,-2.41968 26.47903,-8.72451 32.88341,-16.46987 17.41478,-21.06118 -1.72519,-45.95918 -38.45561,-50.0245 -20.43724,-2.262 -43.485677,4.88048 -53.947786,16.71788 -2.680019,3.03231 -5.749778,8.82842 -6.492388,12.25848 -2.643588,12.21051 5.230299,24.28296 20.722586,31.77241 6.715558,3.24651 13.646638,5.12528 24.345868,6.59929 3.02576,0.41685 16.89551,-0.14849 20.94392,-0.85369 z M 94.419857,204.9731 c -0.39383,-0.14203 -1.629024,-0.8501 -2.744877,-1.57348 l -2.028822,-1.31524 v -2.91047 c 0,-3.23253 0.530544,-3.84952 3.310207,-3.84952 h 1.463492 v -4.6947 -4.6947 l -2.386849,-1.40978 -2.38685,-1.40978 v -2.95099 c 0,-4.02981 -0.0024,-4.02893 10.534742,-3.82101 8.24072,0.1626 8.53132,0.20076 9.73895,1.27871 l 1.24477,1.1111 0.27288,-0.99146 c 0.38154,-1.38627 2.16215,-1.60834 11.15263,-1.39095 l 7.60668,0.18394 1.445,1.31538 c 1.36837,1.24562 1.44501,1.26362 1.44501,0.33935 0,-0.53683 0.41551,-1.18734 0.92336,-1.44558 1.54498,-0.78563 25.03724,-0.61097 28.35789,0.21083 1.51201,0.3742 3.13888,0.68036 3.61524,0.68036 0.47637,0 1.84709,0.99644 3.04604,2.21432 2.43203,2.47041 3.46485,5.15589 2.96213,7.70198 -1.13125,5.72951 -6.03534,8.68012 -14.42682,8.68012 h -3.16262 l 1.03796,1.04977 c 0.83204,0.84152 1.03795,1.59991 1.03795,3.82296 0,4.22382 0.0599,4.1987 -10.00675,4.1987 h -8.50643 l -2.31963,-1.51792 -2.31963,-1.51791 -0.15372,-2.88661 c -0.17565,-3.29837 0.40521,-4.05613 3.10918,-4.05613 h 1.57955 l -0.0197,-4.64911 -0.0197,-4.6491 -1.99606,-1.21166 c -2.1245,-1.28961 -2.73815,-1.27805 -2.73815,0.0516 0,0.84184 -1.23071,1.36917 -3.22225,1.38065 l -1.07408,0.006 v 9.05547 c 0,10.68339 0.43638,9.99453 -6.33126,9.99453 -4.24319,0 -4.60826,-0.0779 -6.78285,-1.44643 -1.26406,-0.79554 -2.40003,-1.81607 -2.52437,-2.26786 -0.40514,-1.47201 -1.06947,-0.86518 -1.06947,0.97691 0,1.31374 -0.24881,1.92484 -0.92335,2.26785 -0.95765,0.48697 -15.441272,0.60782 -16.739333,0.13967 z m 14.011913,-9.54032 c 0.12349,-0.18985 -0.0523,-0.70487 -0.39062,-1.14449 -0.58096,-0.75491 -0.62877,-0.7498 -0.86049,0.0921 -0.32798,1.19168 0.6341,2.00093 1.25111,1.05236 z m 46.49473,-9.05112 c -0.72203,-0.10392 -1.90352,-0.10392 -2.62554,0 -0.72202,0.10393 -0.13128,0.18896 1.31277,0.18896 1.44404,0 2.03479,-0.085 1.31277,-0.18896 z"
         style="fill:#d1ecf5;stroke-width:0.46531853" />
      <path
         inkscape:connector-curvature="0"
         id="path21"
         d="m 64.822922,190.78868 v -44.45 h 64.444938 64.44494 v 44.45 44.44999 H 129.26786 64.822922 Z m 80.186268,33.38054 c 13.41536,-2.37722 26.31498,-8.90914 32.59625,-16.50561 4.85671,-5.87363 6.75949,-11.15854 6.46424,-17.95423 -0.21818,-5.02176 -1.20525,-7.98232 -4.27001,-12.80718 -5.60221,-8.8196 -18.42837,-16.11117 -33.9726,-19.31318 -4.17051,-0.85909 -6.32632,-1.00187 -15.1271,-1.00187 -11.3948,0 -15.87885,0.63147 -24.19712,3.40757 -12.954045,4.32324 -21.996848,11.06244 -26.40899,19.68146 -2.2546,4.40431 -2.832404,6.66277 -2.84765,11.13059 -0.03797,11.12839 7.566474,21.00326 21.231292,27.5702 7.006718,3.36724 13.677268,5.21423 23.868498,6.60888 3.17014,0.43383 18.78088,-0.12868 22.66319,-0.81663 z m -52.541634,-20.68639 -2.190986,-1.36763 0.04282,-3.05523 0.04282,-3.05522 2.267507,-0.13825 2.267507,-0.13824 v -5.19122 c 0,-3.23108 -0.184114,-5.19122 -0.487604,-5.19122 -0.268183,0 -1.307868,-0.51576 -2.310411,-1.14614 -1.821436,-1.14528 -1.822773,-1.14843 -1.779902,-4.19553 l 0.0429,-3.0494 h 9.151681 c 9.024952,0 9.168702,0.0152 10.380912,1.09792 0.67608,0.60385 1.28378,1.01207 1.35046,0.90714 0.0667,-0.10493 0.3592,-0.59899 0.65007,-1.09792 0.49319,-0.84598 1.09574,-0.91549 8.93718,-1.03095 l 8.40833,-0.1238 1.91828,1.64665 c 1.94922,1.67321 2.14256,1.63521 2.50279,-0.4919 0.14861,-0.87754 0.57404,-0.91117 13.03628,-1.03056 8.15796,-0.0782 13.67049,0.0587 15.03082,0.3731 1.18149,0.27309 2.79261,0.60678 3.58027,0.74153 0.78766,0.13475 2.23589,0.97613 3.21829,1.86974 4.71464,4.2885 4.03382,10.81984 -1.45662,13.97391 -2.8575,1.64152 -4.55221,1.97465 -10.11564,1.98839 l -4.05765,0.01 1.55146,1.16178 c 1.45337,1.08832 1.55145,1.34033 1.55145,3.98639 0,1.59217 -0.24995,3.06211 -0.57285,3.36891 -0.40285,0.38277 -3.10717,0.54429 -9.11309,0.54429 h -8.54026 l -1.84166,-1.24732 c -1.60927,-1.08993 -1.88084,-1.54024 -2.15222,-3.56872 -0.49175,-3.67561 -0.30883,-4.00785 2.29418,-4.16685 l 2.26321,-0.13824 v -4.89866 -4.89866 l -2.14816,-1.29015 c -1.50325,-0.90283 -2.14817,-1.59539 -2.14817,-2.30686 0,-0.5592 -0.21482,-1.14286 -0.47737,-1.29704 -0.28682,-0.16842 -0.47737,0.41997 -0.47737,1.47404 0,2.26871 -0.79381,3.2045 -2.86422,3.37647 l -1.67079,0.13878 -0.23869,9.29821 -0.23868,9.29821 -5.01312,0.1276 c -4.77334,0.12149 -5.11013,0.0678 -7.04121,-1.12188 -1.11545,-0.68721 -2.02809,-1.56299 -2.02809,-1.94617 0,-0.38318 -0.4345,-0.95452 -0.96557,-1.26964 -1.13797,-0.67525 -1.31443,-0.39783 -1.52391,2.39581 l -0.13605,1.81428 -8.35397,0.11394 -8.353974,0.11393 z m 16.419734,-8.64688 c -1.24406,-2.01325 -2.05581,-2.57334 -2.05581,-1.41848 0,0.50907 -0.12384,1.2322 -0.27519,1.60695 -0.18613,0.46088 0.0842,0.74643 0.8354,0.88247 2.34586,0.4248 2.39717,0.38806 1.4956,-1.07094 z m 47.31293,-7.95116 c 1.69027,-0.61628 0.57848,-1.12059 -2.19058,-0.99365 -3.73094,0.17104 -4.55472,1.26897 -0.95211,1.26897 1.31318,0 2.72739,-0.12389 3.14269,-0.27532 z"
         style="fill:#a6dcef;stroke-width:0.46531853" />
      <path
         inkscape:connector-curvature="0"
         id="path24"
         d="m 64.822922,190.78868 v -44.45 h 64.444938 64.44494 v 44.45 44.44999 H 129.26786 64.822922 Z m 79.460798,34.24547 c 10.74817,-1.87142 21.09412,-6.17854 28.46614,-11.85073 7.46392,-5.7429 12.37028,-14.62522 12.37028,-22.39474 0,-7.89627 -5.12334,-16.88236 -13.00665,-22.81302 -13.84838,-10.41823 -36.4177,-14.95965 -55.73462,-11.21496 -13.72682,2.66102 -26.014973,8.77878 -32.610814,16.23557 -2.687514,3.03832 -6.231126,9.73118 -6.970682,13.16563 -1.97106,9.15345 2.689912,19.90611 11.609225,26.78198 9.152396,7.05555 19.215931,10.79048 34.894141,12.95043 3.04268,0.41919 16.89715,-0.14875 20.98298,-0.86016 z M 92.373898,203.18528 c -1.131348,-0.76708 -1.708516,-1.4699 -1.543217,-1.87919 0.145233,-0.3596 0.03088,-0.92078 -0.254118,-1.24706 -0.284997,-0.32628 -0.449816,-1.26992 -0.366264,-2.09698 0.142758,-1.4131 0.271949,-1.51203 2.143557,-1.64148 1.095403,-0.0758 2.230951,-0.41172 2.52344,-0.74657 0.335972,-0.38465 0.4815,-2.3204 0.395207,-5.25689 -0.120452,-4.09889 -0.249152,-4.70735 -1.089283,-5.14985 -2.653665,-1.39772 -3.627428,-2.23053 -3.365717,-2.87854 0.152481,-0.37755 0.04406,-0.95341 -0.24094,-1.27969 -0.284997,-0.32628 -0.449816,-1.26992 -0.366264,-2.09697 l 0.151914,-1.50374 h 9.070029 c 8.719748,0 9.129928,0.0406 10.621048,1.05113 l 1.55103,1.05113 0.46598,-1.16452 0.46598,-1.16452 h 8.75385 8.75385 l 1.30854,1.29772 c 1.17105,1.16139 1.29328,1.57836 1.16339,3.96875 l -0.14514,2.67102 -1.90948,0.22679 -1.90948,0.22679 -0.23869,9.29821 -0.23868,9.29821 -5.2021,0.12942 c -4.91939,0.12238 -5.30416,0.0652 -7.07987,-1.05128 -1.12451,-0.70707 -1.77806,-1.42755 -1.62923,-1.79608 0.20681,-0.51205 -1.5004,-2.04456 -2.27764,-2.04456 -0.12679,0 -0.29546,1.07157 -0.37482,2.38125 l -0.14429,2.38125 -8.59266,0.12081 -8.592658,0.12081 z m 17.270912,-7.52071 c -0.30902,-0.5613 -0.99275,-1.60465 -1.51941,-2.31856 -1.06568,-1.44458 -1.55047,-1.10328 -1.84377,1.29802 -0.17338,1.4194 -0.2516,1.37574 3.5502,1.98137 0.20616,0.0328 0.12199,-0.39954 -0.18702,-0.96083 z m 25.8754,7.42695 c -0.98948,-0.77969 -1.48646,-1.49174 -1.27168,-1.82195 0.19393,-0.29813 0.10463,-0.82595 -0.19844,-1.17292 -0.30308,-0.34697 -0.48268,-1.30754 -0.39913,-2.1346 0.1412,-1.39769 0.28614,-1.51411 2.05534,-1.65092 2.94205,-0.22751 3.10896,-0.53551 3.10896,-5.73698 v -4.63916 l -2.43419,-1.43774 c -1.76457,-1.04224 -2.35325,-1.63818 -2.13993,-2.16636 0.16184,-0.40074 0.0611,-0.99558 -0.22392,-1.32186 -0.28499,-0.32628 -0.44981,-1.26992 -0.36626,-2.09697 l 0.15192,-1.50374 12.88898,-0.13717 c 16.44903,-0.17506 18.9023,0.16113 21.93988,3.00659 2.36872,2.21892 2.89902,3.75416 2.53615,7.3423 -0.27645,2.73369 -2.00925,5.04958 -4.81217,6.43149 -1.64584,0.81144 -3.11795,1.03289 -8.29084,1.24722 -3.45933,0.14333 -6.44885,0.41184 -6.6434,0.59669 -0.19455,0.18485 0.0827,0.33609 0.6162,0.33609 0.53346,0 1.53593,0.42303 2.22773,0.94007 1.14256,0.85393 1.2578,1.22794 1.2578,4.08214 v 3.14208 l -9.18937,-0.0122 -9.18937,-0.0122 z m 21.16223,-16.35802 c 1.17294,-0.92493 0.41442,-1.38768 -2.27461,-1.38768 -2.77301,0 -5.2285,1.14315 -4.06497,1.89244 0.88794,0.57181 5.43327,0.20991 6.33958,-0.50476 z"
         style="fill:#90d4eb;stroke-width:0.46531853" />
      <path
         inkscape:connector-curvature="0"
         id="path26"
         d="m 64.822922,190.78868 v -44.45 h 64.444938 64.44494 v 44.45 44.44999 H 129.26786 64.822922 Z m 75.996708,35.60851 c 23.39715,-2.93696 41.18694,-15.0059 44.60859,-30.26334 1.54752,-6.90051 0.0616,-13.68592 -4.39872,-20.08624 -3.21768,-4.61723 -4.51828,-6.00836 -8.21697,-8.78891 -19.04482,-14.31722 -51.54236,-16.88915 -74.331492,-5.88276 -13.123136,6.33804 -21.047511,15.30071 -22.723047,25.70036 -0.663645,4.11909 -0.164284,8.92011 1.329664,12.7838 1.194158,3.08837 5.60264,9.3265 8.399749,11.88588 7.778451,7.11737 20.592586,12.65617 33.278316,14.38426 1.96915,0.26825 4.11732,0.56262 4.7737,0.65417 3.09391,0.4315 12.42331,0.22245 17.28021,-0.38722 z M 92.859877,203.24554 c -0.979885,-0.63266 -1.781609,-1.34703 -1.781609,-1.5875 0,-0.26343 3.22568,-0.43722 8.115289,-0.43722 4.961103,0 8.115293,-0.17213 8.115293,-0.44286 0,-0.26619 -3.28508,-0.49237 -8.234636,-0.56697 l -8.234631,-0.1241 v -1.81428 -1.81429 l 2.148165,-0.22679 2.148164,-0.22678 0.134571,-5.33815 c 0.120421,-4.77685 0.04513,-5.36884 -0.716055,-5.63006 -1.312063,-0.45026 -3.47616,-1.97118 -3.47616,-2.44303 0,-0.23248 0.859266,-0.42269 1.90948,-0.42269 2.550443,0 2.452316,-0.81767 -0.119343,-0.99446 -2.024247,-0.13915 -2.028822,-0.14356 -2.028822,-1.95375 v -1.81429 h 8.912981 c 8.586306,0 8.954856,0.0374 10.055536,1.02054 0.6284,0.56129 1.38229,1.02053 1.6753,1.02053 0.29301,0 0.60139,-0.45924 0.68529,-1.02053 0.15116,-1.01129 0.23,-1.02131 8.70383,-1.1052 l 8.55129,-0.0847 1.59282,1.51342 c 1.27698,1.21332 1.59282,1.8748 1.59282,3.33596 0,2.80934 -0.33537,3.25745 -2.43792,3.25745 h -1.85841 v 8.98071 c 0,6.38024 -0.16587,9.13832 -0.57284,9.525 -0.36883,0.35044 -2.26545,0.54429 -5.32535,0.54429 -4.35914,0 -4.88466,-0.0958 -6.34902,-1.15701 -0.87808,-0.63636 -1.59652,-1.35073 -1.59652,-1.5875 0,-0.24291 2.08013,-0.43049 4.7737,-0.43049 2.86422,0 4.7737,-0.18143 4.7737,-0.45357 0,-0.27433 -2.03319,-0.45357 -5.14485,-0.45357 -3.88388,0 -5.40488,-0.17306 -6.20581,-0.70608 -1.05273,-0.7006 -1.06096,-0.689 -1.06096,1.49679 0,1.21157 -0.25778,2.44779 -0.57284,2.74714 -0.39944,0.37953 -2.96689,0.54429 -8.48184,0.54429 -7.679664,0 -7.960666,-0.0333 -9.690613,-1.15028 z m 16.129213,-9.01044 c -0.94027,-1.39661 -1.90483,-2.53928 -2.14347,-2.53928 -0.23863,0 -0.50055,0.7654 -0.58204,1.70089 -0.13526,1.55284 -0.28321,1.71327 -1.69961,1.84303 -2.26056,0.20709 -1.89974,0.9853 0.47737,1.02959 3.18698,0.0594 4.168,0.22581 4.78468,0.81174 1.25993,1.19712 0.77507,-0.45164 -0.83693,-2.84597 z m 8.23512,-3.53147 c -0.29504,-0.84102 -1.32271,-0.98051 -1.32271,-0.17954 0,0.39499 0.34013,0.71816 0.75584,0.71816 0.41571,0 0.6708,-0.24238 0.56687,-0.53862 z m -13.73432,-4.19711 c 0,-0.11001 -0.21482,-0.32617 -0.47737,-0.48034 -0.26256,-0.15418 -0.47737,-0.0642 -0.47737,0.20001 0,0.26419 0.21481,0.48034 0.47737,0.48034 0.26255,0 0.47737,-0.09 0.47737,-0.20001 z m 13.12767,-4.78927 c -0.16227,-0.24947 -1.14162,-0.45357 -2.17634,-0.45357 -1.03472,0 -1.88131,0.2041 -1.88131,0.45357 0,0.24946 0.97936,0.45357 2.17634,0.45357 1.32934,0 2.06152,-0.17652 1.88131,-0.45357 z m 11.69556,0 c 0,-0.24947 -0.73918,-0.45357 -1.64262,-0.45357 -0.90344,0 -1.77538,0.2041 -1.93765,0.45357 -0.17818,0.27392 0.47241,0.45357 1.64262,0.45357 1.06571,0 1.93765,-0.20411 1.93765,-0.45357 z m 7.63201,21.37171 c -0.91569,-0.72935 -1.52504,-1.46185 -1.35413,-1.62779 0.17092,-0.16594 3.97662,-0.29618 8.45711,-0.28942 4.70147,0.007 8.26605,-0.17174 8.42942,-0.42289 0.28207,-0.43365 -2.60532,-0.58137 -12.42358,-0.6356 l -4.7737,-0.0264 v -1.81428 -1.81429 l 2.14816,-0.22678 2.14817,-0.22679 0.13454,-5.3352 0.13454,-5.3352 -1.32709,-0.4794 c -1.46625,-0.52969 -2.99964,-1.70587 -2.99964,-2.30087 0,-0.2108 0.85927,-0.38327 1.90948,-0.38327 2.55045,0 2.45232,-0.81767 -0.11934,-0.99446 -2.02425,-0.13915 -2.02882,-0.14356 -2.02882,-1.95375 v -1.81429 l 13.12767,-0.12451 c 10.85051,-0.10291 13.52439,-0.002 15.41473,0.58226 1.25788,0.38871 2.49156,0.58667 2.74151,0.43989 0.85061,-0.4995 5.14666,4.09071 5.49908,5.87561 0.71923,3.64268 -0.77514,7.27178 -3.80142,9.23184 -2.25738,1.46205 -5.12852,1.88779 -12.81269,1.89989 -7.23645,0.0114 -9.32046,0.56265 -4.09059,1.08203 1.62285,0.16117 3.45835,0.60911 4.07889,0.99544 1.02794,0.63995 1.11576,0.97254 0.98768,3.74034 l -0.14059,3.03792 -8.83726,0.12301 -8.83725,0.123 z m 24.82915,-10.93957 c 0,-0.28078 -2.54597,-0.45357 -6.68318,-0.45357 -4.13721,0 -6.68318,0.17279 -6.68318,0.45357 0,0.28078 2.54597,0.45357 6.68318,0.45357 4.13721,0 6.68318,-0.17279 6.68318,-0.45357 z m -3.9172,-5.2471 c 1.61543,-1.07509 0.84316,-1.55647 -2.49702,-1.55647 -2.09877,0 -3.19705,0.20696 -3.61055,0.68036 -0.32685,0.37419 -1.21242,0.68035 -1.96793,0.68035 -0.75551,0 -1.37366,0.20411 -1.37366,0.45358 0,0.78723 8.21569,0.56307 9.44916,-0.25782 z m -1.81124,-5.18504 c 0,-0.26458 -1.59123,-0.45357 -3.81896,-0.45357 -2.22773,0 -3.81896,0.18899 -3.81896,0.45357 0,0.26458 1.59123,0.45357 3.81896,0.45357 2.22773,0 3.81896,-0.18899 3.81896,-0.45357 z"
         style="fill:#63c5ec;stroke-width:0.46531853" />
      <path
         inkscape:connector-curvature="0"
         id="path28"
         d="m 64.822922,190.78868 v -44.45 h 64.444938 64.44494 v 44.45 44.44999 H 129.26786 64.822922 Z m 75.519338,36.06208 c 16.38389,-2.05661 31.39828,-8.99752 38.73482,-17.90649 10.02183,-12.16979 9.68055,-25.34188 -0.97025,-37.44843 -6.49397,-7.38156 -20.22232,-13.89354 -34.39291,-16.31412 -21.5991,-3.6895 -46.390714,2.67719 -59.26835,15.22059 -2.805578,2.73276 -6.512853,8.30198 -7.833962,11.76851 -3.013197,7.90649 -1.758856,16.03161 3.716431,24.07358 10.031381,14.73386 35.936851,23.62871 60.014221,20.60636 z m -47.68592,-24.02811 -1.339387,-1.11959 7.160549,-0.0205 c 7.732248,-0.0222 9.308718,-0.22456 9.308718,-1.19499 0,-0.51099 -1.59497,-0.62746 -8.592663,-0.62746 h -8.592659 v -1.58749 c 0,-1.50467 0.08514,-1.5875 1.631752,-1.5875 3.164666,0 3.141947,0.0463 3.141947,-6.39853 0,-5.75784 -0.01654,-5.84812 -1.074082,-5.86233 -1.057331,-0.0142 -2.744877,-0.94235 -2.744877,-1.50968 0,-0.1596 0.859266,-0.29018 1.90948,-0.29018 1.313888,0 1.909479,-0.19707 1.909479,-0.63183 0,-0.79142 -1.039027,-1.18245 -3.141947,-1.18245 -1.553381,0 -1.631752,-0.078 -1.631752,-1.62284 v -1.62284 l 8.950686,0.14873 c 8.548846,0.14205 9.018296,0.19695 10.456756,1.22269 1.61535,1.15187 2.55157,0.99763 2.55157,-0.42037 0,-0.8396 0.40741,-0.88037 8.7967,-0.88037 h 8.7967 l 0.98938,1.19509 c 0.72171,0.87176 0.98939,1.85349 0.98939,3.62857 0,2.30996 -0.0622,2.43348 -1.22481,2.43348 -0.67364,0 -1.64032,0.21129 -2.14816,0.46953 -0.86556,0.44014 -0.92336,1.03633 -0.92336,9.525 v 9.05547 h -5.05807 c -3.92159,0 -5.36958,-0.17484 -6.4445,-0.77815 -0.76253,-0.42798 -1.38642,-0.91855 -1.38642,-1.09015 0,-0.17159 2.02323,-0.38272 4.49607,-0.46917 2.47283,-0.0865 4.64251,-0.29668 4.8215,-0.46718 0.95519,-0.90988 -0.69746,-1.2775 -5.74318,-1.2775 -6.18753,0 -5.25432,0.54474 -9.13019,-5.32946 -1.19334,-1.80861 -2.35186,-3.28839 -2.57447,-3.28839 -0.22261,0 -0.47142,0.7654 -0.55291,1.70089 -0.14011,1.60853 -0.24537,1.70854 -1.9383,1.84167 -1.09895,0.0864 -1.79013,0.37415 -1.79013,0.74522 0,0.83377 1.08323,1.15246 3.97734,1.17017 3.65012,0.0223 4.61531,0.9592 4.61531,4.47993 v 2.76212 h -8.56603 c -8.427879,0 -8.587646,-0.018 -9.90543,-1.1196 z m 24.67727,-12.0072 c 0,-1.09249 -0.86552,-1.65369 -1.54894,-1.00433 -0.36311,0.34501 -0.33416,0.68802 0.10004,1.18512 0.83431,0.95517 1.4489,0.87848 1.4489,-0.18079 z m -13.63847,-4.05752 c 0.14388,-0.2212 -0.0391,-0.63933 -0.4067,-0.92917 -0.74409,-0.58675 -1.50604,0.0875 -0.99198,0.87777 0.36529,0.56158 1.05045,0.58676 1.39868,0.0514 z m 13.38499,-4.56435 c 0.6807,-1.0465 -3.08833,-1.81607 -4.52022,-0.92296 -0.63649,0.397 -0.63649,0.49625 0,0.89325 0.91809,0.57265 4.15323,0.5939 4.52022,0.0297 z m 10.95526,0.1555 c 1.34559,-0.49061 0.86303,-1.53897 -0.70839,-1.53897 -1.73697,0 -3.45178,0.77612 -3.05672,1.38347 0.31396,0.48267 2.60794,0.57741 3.76511,0.1555 z m 7.96737,20.66545 c -0.62794,-0.50009 -1.00244,-1.04158 -0.83222,-1.20332 0.17022,-0.16173 3.69142,-0.28123 7.82489,-0.26555 7.05771,0.0268 9.83095,-0.36084 8.87941,-1.24105 -0.71682,-0.66308 -8.46924,-1.00447 -14.13366,-0.62239 l -3.69962,0.24955 v -1.62333 c 0,-1.54546 0.0783,-1.62333 1.63175,-1.62333 3.14941,0 3.14321,0.012 3.12963,-6.05835 l -0.0123,-5.50773 -1.89717,-0.8311 c -2.41916,-1.05978 -2.41469,-1.66354 0.0123,-1.66354 1.31389,0 1.90948,-0.19707 1.90948,-0.63183 0,-0.79142 -1.03903,-1.18245 -3.14195,-1.18245 -1.55025,0 -1.63175,-0.0802 -1.63175,-1.60632 v -1.60632 l 14.44044,0.18977 c 7.94224,0.10437 15.22154,0.33657 16.17622,0.51598 1.14507,0.2152 2.44469,1.01255 3.81896,2.34301 l 2.08318,2.01679 v 3.53117 c 0,3.13543 -0.1441,3.71068 -1.28582,5.13293 -2.30804,2.87513 -3.86622,3.28858 -13.35528,3.5437 -4.63941,0.12473 -8.60729,0.39096 -8.81752,0.59162 -0.67905,0.64816 0.95753,1.2086 3.55012,1.21572 2.05595,0.006 2.75129,0.2192 3.72446,1.14386 1.02414,0.97308 1.17579,1.47962 1.05238,3.51518 l -0.14418,2.37826 -9.07003,0.10416 c -8.46784,0.0973 -9.14583,0.0438 -10.21173,-0.80509 z m 25.58241,-10.63979 c 1.32897,-0.37498 2.68883,-0.9938 3.02194,-1.37516 0.53426,-0.61166 0.44255,-0.63297 -0.7782,-0.18089 -0.83357,0.3087 -4.23113,0.49323 -8.54439,0.46407 -7.11774,-0.0481 -9.43879,0.33887 -7.8766,1.31326 1.15118,0.71802 11.41613,0.55781 14.17725,-0.22128 z m -5.58459,-4.90006 c 1.14812,-0.37201 1.71851,-0.86061 1.82334,-1.5619 0.14451,-0.96681 -0.008,-1.02053 -2.89233,-1.02053 -1.93822,0 -3.38164,0.24203 -3.9715,0.66593 -0.50965,0.36626 -1.35627,0.67555 -1.88138,0.6873 -0.5251,0.0118 -1.27696,0.22236 -1.67079,0.468 -0.63649,0.397 -0.63649,0.49625 0,0.89325 0.98442,0.61402 6.55428,0.52842 8.59266,-0.13205 z m 0.21989,-5.74289 c -0.87426,-0.83067 -7.71603,-1.20799 -8.81255,-0.48601 -1.38276,0.91045 0.55529,1.39564 5.12709,1.28355 3.9466,-0.0968 4.33463,-0.18073 3.68546,-0.79754 z"
         style="fill:#4cbae9;stroke-width:0.46531853" />
      <path
         inkscape:connector-curvature="0"
         id="path30"
         d="m 64.822922,190.78868 v -44.45 h 64.444938 64.44494 v 44.45 44.44999 H 129.26786 64.822922 Z M 141.297,226.85076 c 16.51848,-2.0735 29.56527,-8.24742 38.03435,-17.99836 5.37269,-6.18589 7.51931,-12.15009 7.0728,-19.65122 -0.50578,-8.49704 -4.9007,-15.82935 -13.4429,-22.42758 -10.95153,-8.45926 -24.59583,-12.49256 -42.26128,-12.49256 -17.57653,0 -30.930125,3.92942 -42.031618,12.3682 -10.324272,7.84798 -15.010601,17.57659 -13.439654,27.90014 0.708593,4.65654 1.595658,6.92017 4.302974,10.98037 7.106072,10.65707 22.057498,18.77924 38.756678,21.05406 1.96915,0.26825 4.11732,0.56262 4.7737,0.65417 3.1359,0.43736 13.40279,0.21935 18.23495,-0.38722 z M 93.345775,203.15067 c -0.722022,-0.42858 -1.312767,-0.93102 -1.312767,-1.11653 0,-0.1855 3.490767,-0.39336 7.757261,-0.46191 7.342261,-0.11796 7.764601,-0.17316 7.894491,-1.03177 0.13282,-0.87803 -0.13528,-0.90714 -8.353978,-0.90714 h -8.491199 v -1.36071 c 0,-1.25979 0.14118,-1.37164 1.903427,-1.50791 2.977913,-0.23028 3.108957,-0.49251 3.108957,-6.22125 0,-5.7404 -0.177119,-6.54802 -1.370991,-6.25138 -0.45758,0.11369 -1.356676,-0.22904 -1.997993,-0.76162 l -1.16603,-0.96834 2.056559,0.2183 c 1.892508,0.20089 2.044826,0.14006 1.909479,-0.76261 -0.119624,-0.7978 -0.548076,-1.02324 -2.295243,-1.20769 -2.015562,-0.21279 -2.148165,-0.31078 -2.148165,-1.5875 v -1.36072 l 8.115289,0.0168 c 8.476278,0.0176 9.867848,0.18277 11.201818,1.32981 1.17047,1.00644 2.31255,0.85684 2.48937,-0.3261 0.15162,-1.01437 0.20356,-1.02054 8.58811,-1.02054 8.31043,0 8.45414,0.0166 9.6881,1.11867 1.08105,0.9655 1.23327,1.43128 1.11184,3.40179 l -0.14071,2.28311 -1.90948,0.22679 -1.90948,0.22678 -0.23869,9.29822 -0.23868,9.29821 -4.9149,0.12949 c -4.47565,0.11792 -5.05161,0.0368 -6.4445,-0.90714 l -1.52959,-1.03663 4.7687,-0.22679 c 4.04969,-0.19259 4.79272,-0.34646 4.92804,-1.02054 0.14451,-0.71982 -0.36766,-0.79375 -5.4995,-0.79375 h -5.65884 l -2.61079,-3.89904 c -3.91595,-5.8482 -4.75895,-6.35797 -4.75895,-2.87776 v 1.78752 h -1.94449 c -1.59481,0 -1.91561,0.14274 -1.78392,0.79375 0.12553,0.62053 0.8699,0.86832 3.41101,1.13547 5.04198,0.53006 5.81717,1.25746 5.48234,5.14437 l -0.15256,1.77105 -8.11529,0.10723 c -6.973095,0.0921 -8.300054,-0.002 -9.428055,-0.67202 z m 24.142795,-11.63789 c 0.48206,-1.19358 -0.1729,-2.449 -1.15087,-2.20601 -1.02715,0.25522 -1.20789,1.4744 -0.34072,2.29834 0.75124,0.71379 1.17667,0.68745 1.49159,-0.0923 z m -13.60745,-4.915 c -0.19282,-1.28411 -1.82334,-1.6898 -1.82334,-0.45367 0,1.02731 0.39308,1.46957 1.30618,1.46957 0.42076,0 0.61299,-0.37764 0.51716,-1.0159 z m 13.26418,-5.14616 c -0.39329,-0.9738 -5.30144,-0.72787 -5.30144,0.26563 0,0.4948 0.71605,0.74221 2.62553,0.90714 2.69335,0.23264 3.16078,0.0278 2.67591,-1.17277 z m 11.55575,-0.0506 c 0.13642,-0.91092 -0.007,-0.97586 -1.67079,-0.75509 -2.64813,0.35145 -3.01347,0.51012 -3.01347,1.30876 0,0.57531 0.45429,0.69175 2.26751,0.5812 1.9176,-0.11691 2.29054,-0.29204 2.41675,-1.13487 z m 7.48868,21.4214 -1.43211,-1.11536 3.81896,-0.0383 c 12.96337,-0.12994 13.35756,-0.16288 13.5033,-1.12826 0.12913,-0.8554 -0.0901,-0.89824 -3.84246,-0.75095 -3.20049,0.12563 -4.10305,0.0146 -4.61107,-0.56696 -0.7971,-0.91256 -1.65724,-0.92092 -2.44092,-0.0237 -0.46209,0.52904 -1.37776,0.66718 -3.75807,0.56697 l -3.14711,-0.13248 v -1.36071 c 0,-1.25979 0.14118,-1.37164 1.90342,-1.50791 2.96183,-0.22903 3.10896,-0.51272 3.10896,-5.99446 0,-5.45938 -0.19702,-6.33156 -1.4303,-6.33156 -0.46793,0 -1.35791,-0.42223 -1.97775,-0.93829 l -1.12696,-0.93828 2.05655,0.2183 c 1.89251,0.20089 2.04483,0.14006 1.90948,-0.76261 -0.11962,-0.7978 -0.54807,-1.02324 -2.29524,-1.20769 -2.01556,-0.21279 -2.14816,-0.31078 -2.14816,-1.5875 v -1.36072 l 12.88898,-0.135 c 14.18403,-0.14857 17.48458,0.25396 20.69691,2.52414 3.68045,2.60103 3.98702,8.20773 0.63503,11.61404 -2.34906,2.38714 -3.86388,2.73006 -13.21665,2.99194 -7.20713,0.2018 -8.59266,0.3503 -8.59266,0.92095 0,0.50489 0.83995,0.76849 3.25666,1.02208 4.83857,0.50771 5.09732,0.72141 5.09732,4.20995 v 2.93226 l -8.712,-0.002 c -8.54598,-0.002 -8.7393,-0.0235 -10.14411,-1.11761 z m 26.37255,-10.4635 c 2.18842,-0.8688 3.35899,-1.8592 4.26695,-3.6102 l 0.70613,-1.36179 -1.11303,1.23855 c -1.9732,2.19572 -3.91209,2.61681 -12.04904,2.61681 -7.06986,0 -8.41188,0.23773 -7.68143,1.36071 0.50589,0.77773 13.81204,0.57309 15.87042,-0.24408 z m -5.17857,-5.38247 c 1.91409,-1.64774 1.32144,-2.08416 -2.83022,-2.08416 -2.96758,0 -3.89604,0.15374 -4.10872,0.68036 -0.16822,0.41651 -0.89198,0.68035 -1.86633,0.68035 -1.6631,0 -2.40703,0.56059 -1.85999,1.40159 0.20826,0.32017 1.96771,0.44008 4.99158,0.34018 3.77179,-0.1246 4.86301,-0.32045 5.67368,-1.01832 z m -0.59446,-5.08739 c -1.26045,-1.03078 -1.6778,-1.10232 -5.72844,-0.98195 -3.50453,0.10414 -4.36895,0.26443 -4.36895,0.81018 0,0.54809 0.99035,0.72445 5.09418,0.90714 2.80179,0.12473 5.25428,0.37987 5.44997,0.56697 0.19569,0.18709 0.48111,0.22076 0.63427,0.0748 0.15315,-0.14595 -0.33331,-0.76567 -1.08103,-1.37714 z"
         style="fill:#2fb1e9;stroke-width:0.46531853" />
      <path
         inkscape:connector-curvature="0"
         id="path32"
         d="m 64.822922,190.78868 v -44.45 h 64.444938 64.44494 v 44.45 44.44999 H 129.26786 64.822922 Z M 141.297,227.30434 c 20.15773,-2.53033 35.95678,-11.59824 42.8497,-24.5937 3.11405,-5.87103 3.69648,-14.25862 1.42626,-20.53982 -1.92229,-5.31857 -6.66465,-11.5415 -11.74115,-15.40675 -15.05111,-11.45991 -37.67348,-15.82161 -59.81789,-11.53316 -21.052846,4.07704 -37.001679,16.93938 -39.239562,31.64572 -0.664801,4.36877 -0.124792,9.73811 1.353283,13.45578 1.279235,3.21755 5.727934,9.44485 8.668747,12.13454 7.985891,7.30396 20.675652,12.82455 33.491962,14.57043 1.96915,0.26825 4.11732,0.56262 4.7737,0.65417 3.1359,0.43736 13.40279,0.21935 18.23495,-0.38721 z M 93.254535,202.7939 c -0.828646,-0.59552 -0.197632,-0.66659 5.967124,-0.67213 8.964391,-0.008 9.041931,-0.0299 9.041931,-2.54135 0,-1.32894 0.20577,-1.98817 0.62058,-1.98817 1.20284,0 1.76626,1.11407 1.76626,3.4925 v 2.40393 l -8.23463,-0.0144 c -6.483532,-0.0113 -8.431677,-0.15604 -9.161265,-0.68035 z m 23.391125,0 c -0.84168,-0.60488 -0.60097,-0.66651 2.62554,-0.67213 6.23215,-0.0109 5.70033,0.90329 5.70033,-9.79849 v -9.24532 l 1.07408,-0.006 c 2.6811,-0.0155 3.22225,-0.44226 3.22225,-2.54135 0,-2.16313 0.37851,-2.43779 1.59681,-1.1587 0.4978,0.52264 0.79004,1.6132 0.79004,2.94821 0,1.97209 -0.0848,2.11875 -1.22481,2.11875 -0.67364,0 -1.64031,0.21129 -2.14816,0.46953 -0.86556,0.44014 -0.92336,1.03633 -0.92336,9.52499 v 9.05548 l -4.89304,-0.0144 c -3.54414,-0.0104 -5.1485,-0.19801 -5.81968,-0.68035 z m 19.99333,0.0288 c -0.85084,-0.61146 -0.69236,-0.67334 1.93759,-0.75655 1.57532,-0.0498 4.92829,-0.0337 7.45104,0.0359 5.70865,0.15743 6.63137,-0.22449 6.63137,-2.74475 0,-1.49959 0.15142,-1.80418 0.8354,-1.68038 0.67014,0.12129 0.86351,0.71107 0.97752,2.98147 l 0.14211,2.83027 h -8.52419 c -6.756,0 -8.71642,-0.13814 -9.45084,-0.66594 z m -45.560722,-4.49115 c 0,-0.93927 0.274102,-1.10429 2.171745,-1.30752 1.19446,-0.12792 2.322247,-0.37772 2.506192,-0.5551 0.401035,-0.38673 0.350735,-15.11422 -0.05293,-15.49776 -0.154835,-0.14712 -1.258803,-0.37215 -2.453263,-0.50007 -1.904508,-0.20396 -2.171745,-0.3662 -2.171745,-1.31849 v -1.08591 l 7.957368,0.12436 7.957365,0.12436 4.59624,7.02829 c 2.54578,3.89285 4.95882,7.09464 5.40899,7.17701 0.73053,0.13367 0.81275,-0.4266 0.81275,-5.53822 0,-6.34988 -0.14513,-6.62601 -3.48269,-6.62601 -1.48763,0 -1.61529,-0.10282 -1.40784,-1.13392 l 0.22813,-1.13393 h 7.34359 7.34358 v 1.13393 c 0,0.87171 -0.24838,1.13536 -1.07408,1.14012 -0.59075,0.003 -1.55742,0.12926 -2.14816,0.27968 -1.06932,0.27228 -1.07409,0.31449 -1.07409,9.51881 v 9.24531 l -5.13172,-0.004 -5.13173,-0.004 -1.98942,-3.05773 c -1.09418,-1.68174 -2.7053,-3.97164 -3.58027,-5.08865 -0.87497,-1.11701 -2.1445,-2.95397 -2.82117,-4.08214 -0.78936,-1.31563 -1.55929,-2.05082 -2.14817,-2.05082 -0.84698,0 -0.92831,0.41987 -1.05333,5.43774 -0.15354,6.16289 0.0584,6.58191 3.32963,6.58191 1.6212,0 1.81824,0.12287 1.81824,1.13393 v 1.13392 h -7.876609 -7.876604 z m 43.440662,0 c 0,-0.93927 0.2741,-1.10429 2.17175,-1.30752 1.19446,-0.12792 2.32225,-0.37795 2.50619,-0.55562 0.39066,-0.37733 0.32549,-15.13769 -0.0685,-15.51202 -0.14628,-0.13899 -1.24324,-0.35737 -2.4377,-0.48529 -1.91301,-0.20487 -2.17175,-0.36361 -2.17175,-1.33237 v -1.0998 l 14.20176,0.13825 14.20175,0.13824 2.73234,1.21678 c 3.43533,1.52983 4.66262,3.274 4.66511,6.62985 0.002,2.77768 -0.79652,4.4928 -2.86011,6.14263 -2.19201,1.7525 -4.28371,2.10722 -12.44204,2.11 -5.86894,0.002 -7.62177,0.14528 -8.35398,0.68289 -0.91727,0.67348 -0.91727,0.68723 0,1.36071 0.50965,0.3742 1.63744,0.68036 2.50619,0.68036 1.36661,0 1.57956,0.15286 1.57956,1.13393 0,1.09448 -0.10911,1.13392 -3.137,1.13392 -2.15196,0 -3.36185,-0.21363 -3.85306,-0.68035 -0.39383,-0.3742 -1.00759,-0.68036 -1.36392,-0.68036 -0.35632,0 -0.97008,0.30616 -1.36391,0.68036 -0.47924,0.45535 -1.67458,0.68035 -3.61437,0.68035 -2.73088,0 -2.89832,-0.0621 -2.89832,-1.07494 z m 29.37306,-6.20884 c 2.48662,-1.21663 4.49715,-3.78147 4.51235,-5.75639 0.0127,-1.64384 -1.21613,-1.17364 -2.02106,0.77335 -1.3174,3.18657 -2.74689,3.6453 -11.36554,3.64727 -5.86995,0.001 -7.62164,0.14436 -8.35398,0.68205 -0.9159,0.67248 -0.91557,0.68861 0.0281,1.39223 0.79026,0.58923 2.14976,0.6869 7.89141,0.56696 6.34144,-0.13247 7.14022,-0.24449 9.30871,-1.30547 z m -7.41916,-4.39638 c 2.83089,-1.34782 3.18199,-4.74561 0.65307,-6.32002 -1.79559,-1.11786 -9.11022,-1.4035 -10.43404,-0.40745 -0.94368,0.71003 -0.94401,0.72623 -0.0281,1.39871 0.6694,0.49149 2.14398,0.68035 5.31195,0.68035 3.31571,0 4.53028,0.16595 4.9796,0.68036 0.51777,0.59277 0.19903,0.68036 -2.47584,0.68036 -1.96043,0 -3.40505,0.2407 -3.99675,0.66593 -0.50965,0.36626 -1.36892,0.67242 -1.90948,0.68036 -0.54057,0.008 -1.39983,0.32058 -1.90948,0.69478 -0.91727,0.67348 -0.91727,0.68723 0,1.36071 1.35351,0.99378 7.63561,0.92071 9.80907,-0.11409 z m 11.462,-4.64841 c 0,-0.24946 -0.2275,-0.45357 -0.50555,-0.45357 -0.27805,0 -0.37278,0.20411 -0.21051,0.45357 0.16227,0.24947 0.38976,0.45357 0.50555,0.45357 0.11578,0 0.21051,-0.2041 0.21051,-0.45357 z m -64.44494,8.16429 c 0,-1.74625 0.1685,-3.175 0.37444,-3.175 0.20595,0 0.74757,0.60016 1.20362,1.33369 1.10291,1.77401 0.6606,5.01631 -0.68434,5.01631 -0.78827,0 -0.89372,-0.37463 -0.89372,-3.175 z m 10.27812,-5.22488 c -0.92701,-1.3769 -1.68547,-2.60154 -1.68547,-2.72143 0,-0.11989 0.96668,-0.21798 2.14817,-0.21798 h 2.14816 v 2.72143 c 0,1.49679 -0.20821,2.72143 -0.4627,2.72143 -0.25448,0 -1.22116,-1.12655 -2.14816,-2.50345 z m -20.780262,-2.48584 c -0.579031,-0.35554 -0.510518,-0.44101 0.358027,-0.44662 0.590745,-0.004 1.074082,0.19716 1.074082,0.44662 0,0.56829 -0.506604,0.56829 -1.432109,0 z m 43.201982,0 c -0.16227,-0.24946 0.14727,-0.45357 0.68788,-0.45357 0.5406,0 0.98291,0.20411 0.98291,0.45357 0,0.24947 -0.30955,0.45358 -0.68788,0.45358 -0.37833,0 -0.82065,-0.20411 -0.98291,-0.45358 z m -25.69842,-2.57023 c -0.57984,-0.55094 -0.32983,-1.03409 0.39781,-0.76879 0.39383,0.14359 0.71605,0.44335 0.71605,0.66612 0,0.47553 -0.65764,0.53614 -1.11386,0.10267 z"
         style="fill:#01a1e7;stroke-width:0.46531853" />
    </g>
  </g>
</svg>
